<?xml version="1.0" standalone="no"?>
<!DOCTYPE svg PUBLIC "-//W3C//DTD SVG 20010904//EN"
 "http://www.w3.org/TR/2001/REC-SVG-20010904/DTD/svg10.dtd">
<svg version="1.0" xmlns="http://www.w3.org/2000/svg"
 width="200.000000pt" height="200.000000pt" viewBox="0 0 200.000000 200.000000"
 preserveAspectRatio="xMidYMid meet">
<metadata>
Created by potrace 1.14, written by Peter Selinger 2001-2017
</metadata>
<g transform="translate(0.000000,200.000000) scale(0.100000,-0.100000)"
fill="#000000" stroke="none">
<path d="M410 1728 c-59 -29 -202 -174 -263 -265 -93 -141 -150 -290 -145
-386 2 -64 39 -122 115 -182 79 -62 242 -141 333 -161 124 -28 158 -51 255
-174 123 -156 215 -219 384 -264 124 -33 196 -41 391 -40 215 1 367 26 444 73
68 42 94 138 61 230 -32 92 -75 122 -255 181 -52 16 -127 42 -166 56 l-72 25
-37 82 c-34 75 -125 302 -219 547 -46 123 -94 204 -123 208 -34 5 -108 -78
-134 -150 -25 -68 -38 -76 -134 -85 -104 -10 -155 33 -200 166 -29 88 -52 124
-95 146 -41 21 -88 19 -140 -7z m-123 -515 c107 -92 168 -152 432 -427 97
-102 197 -179 298 -230 69 -34 200 -78 273 -90 19 -3 44 -7 55 -10 20 -4 135
-17 190 -22 17 -1 109 -3 205 -3 l174 -1 -21 -21 c-45 -46 -215 -74 -438 -73
-150 1 -224 8 -328 34 -163 40 -246 96 -364 247 -93 119 -170 173 -269 189
-134 21 -343 140 -399 227 -22 34 -16 110 16 188 11 30 25 64 30 77 5 13 13
22 19 20 5 -2 62 -49 127 -105z"/>
<path d="M13 698 c-18 -20 -9 -55 15 -61 9 -3 67 -4 129 -3 85 1 116 5 127 16
18 19 4 60 -21 61 -10 0 -67 2 -126 2 -90 2 -111 -1 -124 -15z"/>
<path d="M98 522 c-82 -3 -105 -15 -93 -51 3 -12 16 -23 28 -26 12 -3 125 -4
251 -3 205 3 230 5 240 20 8 13 8 23 0 35 -10 16 -33 19 -180 23 -93 3 -203 4
-246 2z"/>
<path d="M17 319 c-20 -12 -23 -42 -4 -57 15 -13 54 -14 425 -13 l293 1 8 23
c6 15 4 27 -7 40 -14 16 -44 17 -356 17 -213 0 -348 -4 -359 -11z"/>
</g>
</svg>
